<mxfile host="app.diagrams.net" modified="2020-11-27T14:43:51.288Z" agent="5.0 (Windows NT 10.0; Win64; x64) AppleWebKit/537.36 (KHTML, like Gecko) Chrome/87.0.4280.67 Safari/537.36 Edg/87.0.664.47" etag="Wofzs5kvfTw-vsQ0yHXD" version="13.10.0" type="github">
  <diagram id="-SyDZYD7yaDIg2uypQUD" name="Page-1">
    <mxGraphModel dx="1280" dy="652" grid="1" gridSize="10" guides="1" tooltips="1" connect="1" arrows="1" fold="1" page="1" pageScale="1" pageWidth="850" pageHeight="1100" background="#ffffff" math="0" shadow="0">
      <root>
        <mxCell id="0" />
        <mxCell id="1" parent="0" />
        <mxCell id="ls_sBYImbQdW8NdeTWr4-1" value="" style="ellipse;html=1;shape=startState;fillColor=#000000;strokeColor=#ff0000;" vertex="1" parent="1">
          <mxGeometry x="55" y="515" width="30" height="30" as="geometry" />
        </mxCell>
        <mxCell id="ls_sBYImbQdW8NdeTWr4-2" value="" style="edgeStyle=orthogonalEdgeStyle;html=1;verticalAlign=bottom;endArrow=open;endSize=8;strokeColor=#ff0000;" edge="1" parent="1">
          <mxGeometry relative="1" as="geometry">
            <mxPoint x="135" y="530" as="targetPoint" />
            <mxPoint x="82" y="530" as="sourcePoint" />
          </mxGeometry>
        </mxCell>
        <mxCell id="ls_sBYImbQdW8NdeTWr4-3" value="Hiển thị trang chủ" style="html=1;align=center;verticalAlign=top;rounded=1;absoluteArcSize=1;arcSize=10;dashed=0;" vertex="1" parent="1">
          <mxGeometry x="135" y="510" width="110" height="40" as="geometry" />
        </mxCell>
        <mxCell id="ls_sBYImbQdW8NdeTWr4-5" value="&lt;font style=&quot;font-size: 14px&quot;&gt;Hiển thị trang thống&lt;br&gt;kê doanh thu&lt;/font&gt;" style="html=1;align=center;verticalAlign=top;rounded=1;absoluteArcSize=1;arcSize=10;dashed=0;" vertex="1" parent="1">
          <mxGeometry x="375" y="370" width="130" height="40" as="geometry" />
        </mxCell>
        <mxCell id="ls_sBYImbQdW8NdeTWr4-6" value="&lt;font style=&quot;font-size: 14px&quot;&gt;Hiển thị trang thống&lt;br&gt;kê các đơn hàng&lt;/font&gt;" style="html=1;align=center;verticalAlign=top;rounded=1;absoluteArcSize=1;arcSize=10;dashed=0;" vertex="1" parent="1">
          <mxGeometry x="375" y="445" width="130" height="40" as="geometry" />
        </mxCell>
        <mxCell id="ls_sBYImbQdW8NdeTWr4-7" value="&lt;font style=&quot;font-size: 14px&quot;&gt;Hiển thị trang thống&lt;br&gt;kê các thông tin khách&amp;nbsp;&lt;br&gt;hàng mới&lt;/font&gt;" style="html=1;align=center;verticalAlign=top;rounded=1;absoluteArcSize=1;arcSize=10;dashed=0;" vertex="1" parent="1">
          <mxGeometry x="365" y="515" width="150" height="60" as="geometry" />
        </mxCell>
        <mxCell id="ls_sBYImbQdW8NdeTWr4-9" value="&lt;font style=&quot;font-size: 14px&quot;&gt;Hiển thị trang thống&lt;br&gt;kê các sản phẩm bán&lt;br&gt;được ưa thích&lt;/font&gt;" style="html=1;align=center;verticalAlign=top;rounded=1;absoluteArcSize=1;arcSize=10;dashed=0;" vertex="1" parent="1">
          <mxGeometry x="370" y="605" width="140" height="60" as="geometry" />
        </mxCell>
        <mxCell id="ls_sBYImbQdW8NdeTWr4-10" value="" style="html=1;points=[];perimeter=orthogonalPerimeter;fillColor=#000000;strokeColor=none;" vertex="1" parent="1">
          <mxGeometry x="325" y="390" width="5" height="260" as="geometry" />
        </mxCell>
        <mxCell id="ls_sBYImbQdW8NdeTWr4-11" value="" style="html=1;verticalAlign=bottom;endArrow=block;" edge="1" parent="1">
          <mxGeometry x="0.25" y="90" width="80" relative="1" as="geometry">
            <mxPoint x="245" y="529.5" as="sourcePoint" />
            <mxPoint x="325" y="529.5" as="targetPoint" />
            <mxPoint as="offset" />
          </mxGeometry>
        </mxCell>
        <mxCell id="ls_sBYImbQdW8NdeTWr4-12" value="" style="html=1;verticalAlign=bottom;endArrow=block;exitX=-0.027;exitY=0.038;exitDx=0;exitDy=0;exitPerimeter=0;" edge="1" parent="1" source="ls_sBYImbQdW8NdeTWr4-10">
          <mxGeometry x="0.5" y="90" width="80" relative="1" as="geometry">
            <mxPoint x="335" y="400" as="sourcePoint" />
            <mxPoint x="375" y="400" as="targetPoint" />
            <mxPoint as="offset" />
          </mxGeometry>
        </mxCell>
        <mxCell id="ls_sBYImbQdW8NdeTWr4-13" value="" style="html=1;verticalAlign=bottom;endArrow=block;" edge="1" parent="1">
          <mxGeometry x="-0.5" y="90" width="80" relative="1" as="geometry">
            <mxPoint x="325" y="465" as="sourcePoint" />
            <mxPoint x="375" y="464.5" as="targetPoint" />
            <mxPoint as="offset" />
          </mxGeometry>
        </mxCell>
        <mxCell id="ls_sBYImbQdW8NdeTWr4-14" value="" style="html=1;verticalAlign=bottom;endArrow=block;" edge="1" parent="1">
          <mxGeometry x="-0.5" y="90" width="80" relative="1" as="geometry">
            <mxPoint x="325" y="545" as="sourcePoint" />
            <mxPoint x="365" y="545" as="targetPoint" />
            <mxPoint as="offset" />
          </mxGeometry>
        </mxCell>
        <mxCell id="ls_sBYImbQdW8NdeTWr4-15" value="" style="html=1;verticalAlign=bottom;endArrow=block;" edge="1" parent="1">
          <mxGeometry x="-0.5" y="90" width="80" relative="1" as="geometry">
            <mxPoint x="325" y="635" as="sourcePoint" />
            <mxPoint x="370" y="634.5" as="targetPoint" />
            <mxPoint as="offset" />
          </mxGeometry>
        </mxCell>
        <mxCell id="ls_sBYImbQdW8NdeTWr4-16" value="" style="html=1;points=[];perimeter=orthogonalPerimeter;fillColor=#000000;strokeColor=none;" vertex="1" parent="1">
          <mxGeometry x="575" y="390" width="5" height="260" as="geometry" />
        </mxCell>
        <mxCell id="ls_sBYImbQdW8NdeTWr4-19" value="" style="html=1;verticalAlign=bottom;endArrow=block;" edge="1" parent="1">
          <mxGeometry x="-0.5" y="90" width="80" relative="1" as="geometry">
            <mxPoint x="505" y="400" as="sourcePoint" />
            <mxPoint x="575" y="400" as="targetPoint" />
            <mxPoint as="offset" />
          </mxGeometry>
        </mxCell>
        <mxCell id="ls_sBYImbQdW8NdeTWr4-20" value="" style="html=1;verticalAlign=bottom;endArrow=block;" edge="1" parent="1">
          <mxGeometry x="-0.5" y="90" width="80" relative="1" as="geometry">
            <mxPoint x="505" y="465" as="sourcePoint" />
            <mxPoint x="575" y="464.5" as="targetPoint" />
            <mxPoint as="offset" />
          </mxGeometry>
        </mxCell>
        <mxCell id="ls_sBYImbQdW8NdeTWr4-21" value="" style="html=1;verticalAlign=bottom;endArrow=block;" edge="1" parent="1">
          <mxGeometry x="-0.5" y="90" width="80" relative="1" as="geometry">
            <mxPoint x="515" y="540" as="sourcePoint" />
            <mxPoint x="575" y="540" as="targetPoint" />
            <mxPoint as="offset" />
          </mxGeometry>
        </mxCell>
        <mxCell id="ls_sBYImbQdW8NdeTWr4-22" value="" style="html=1;verticalAlign=bottom;endArrow=block;exitX=1.02;exitY=0.398;exitDx=0;exitDy=0;exitPerimeter=0;" edge="1" parent="1" source="ls_sBYImbQdW8NdeTWr4-9">
          <mxGeometry x="-0.5" y="90" width="80" relative="1" as="geometry">
            <mxPoint x="515" y="630" as="sourcePoint" />
            <mxPoint x="575" y="630" as="targetPoint" />
            <mxPoint as="offset" />
          </mxGeometry>
        </mxCell>
        <mxCell id="ls_sBYImbQdW8NdeTWr4-23" value="Xuất thành file" style="html=1;align=center;verticalAlign=top;rounded=1;absoluteArcSize=1;arcSize=10;dashed=0;" vertex="1" parent="1">
          <mxGeometry x="645" y="460" width="100" height="25" as="geometry" />
        </mxCell>
        <mxCell id="ls_sBYImbQdW8NdeTWr4-24" value="" style="html=1;verticalAlign=bottom;endArrow=block;" edge="1" parent="1">
          <mxGeometry x="1" y="71" width="80" relative="1" as="geometry">
            <mxPoint x="580" y="472" as="sourcePoint" />
            <mxPoint x="645" y="472.5" as="targetPoint" />
            <mxPoint x="9" y="1" as="offset" />
          </mxGeometry>
        </mxCell>
        <mxCell id="ls_sBYImbQdW8NdeTWr4-26" value="" style="ellipse;html=1;shape=endState;fillColor=#000000;strokeColor=#ff0000;" vertex="1" parent="1">
          <mxGeometry x="680" y="620" width="30" height="30" as="geometry" />
        </mxCell>
        <mxCell id="ls_sBYImbQdW8NdeTWr4-27" value="" style="html=1;verticalAlign=bottom;endArrow=block;entryX=0.5;entryY=0;entryDx=0;entryDy=0;exitX=0.5;exitY=1;exitDx=0;exitDy=0;" edge="1" parent="1" source="ls_sBYImbQdW8NdeTWr4-23" target="ls_sBYImbQdW8NdeTWr4-26">
          <mxGeometry x="-0.5" y="90" width="80" relative="1" as="geometry">
            <mxPoint x="695" y="560" as="sourcePoint" />
            <mxPoint x="775" y="560" as="targetPoint" />
            <mxPoint as="offset" />
          </mxGeometry>
        </mxCell>
        <mxCell id="ls_sBYImbQdW8NdeTWr4-28" value="In" style="html=1;align=center;verticalAlign=top;rounded=1;absoluteArcSize=1;arcSize=10;dashed=0;" vertex="1" parent="1">
          <mxGeometry x="760" y="500" width="60" height="30" as="geometry" />
        </mxCell>
        <mxCell id="ls_sBYImbQdW8NdeTWr4-29" value="" style="html=1;verticalAlign=bottom;endArrow=block;exitX=1;exitY=0.5;exitDx=0;exitDy=0;" edge="1" parent="1" source="ls_sBYImbQdW8NdeTWr4-23">
          <mxGeometry x="1" y="57" width="80" relative="1" as="geometry">
            <mxPoint x="715" y="500" as="sourcePoint" />
            <mxPoint x="795" y="500" as="targetPoint" />
            <Array as="points">
              <mxPoint x="795" y="473" />
            </Array>
            <mxPoint x="40" y="17" as="offset" />
          </mxGeometry>
        </mxCell>
        <mxCell id="ls_sBYImbQdW8NdeTWr4-30" value="" style="html=1;verticalAlign=bottom;endArrow=block;exitX=0.5;exitY=1;exitDx=0;exitDy=0;entryX=1;entryY=0.5;entryDx=0;entryDy=0;" edge="1" parent="1" target="ls_sBYImbQdW8NdeTWr4-26">
          <mxGeometry x="-0.3651" y="61" width="80" relative="1" as="geometry">
            <mxPoint x="793.9999999999998" y="530" as="sourcePoint" />
            <mxPoint x="795" y="640" as="targetPoint" />
            <Array as="points">
              <mxPoint x="794" y="635" />
            </Array>
            <mxPoint as="offset" />
          </mxGeometry>
        </mxCell>
        <mxCell id="ls_sBYImbQdW8NdeTWr4-31" value="&lt;font style=&quot;font-size: 14px&quot;&gt;Kết thúc use case&lt;br&gt;thống kê&lt;/font&gt;" style="text;html=1;align=center;verticalAlign=middle;resizable=0;points=[];autosize=1;" vertex="1" parent="1">
          <mxGeometry x="620" y="650" width="130" height="40" as="geometry" />
        </mxCell>
        <mxCell id="ls_sBYImbQdW8NdeTWr4-32" value="Bắt đầu use case&lt;br&gt;thống kê" style="text;html=1;align=center;verticalAlign=middle;resizable=0;points=[];autosize=1;" vertex="1" parent="1">
          <mxGeometry x="55" y="485" width="110" height="30" as="geometry" />
        </mxCell>
      </root>
    </mxGraphModel>
  </diagram>
</mxfile>
